<svg width="18" height="19" viewBox="0 0 18 19" fill="none" xmlns="http://www.w3.org/2000/svg">
<path d="M12.0403 9.625L16.9231 4.74219C17.5578 4.15625 17.5578 3.17969 16.9231 2.59375L15.8488 1.51953C15.2629 0.884766 14.2863 0.884766 13.7004 1.51953L8.8176 6.40234L3.88596 1.51953C3.30002 0.884766 2.32346 0.884766 1.73752 1.51953L0.6633 2.59375C0.0285339 3.17969 0.0285339 4.15625 0.6633 4.74219L5.54611 9.625L0.6633 14.5566C0.0285339 15.1426 0.0285339 16.1191 0.6633 16.7051L1.73752 17.7793C2.32346 18.4141 3.30002 18.4141 3.88596 17.7793L8.8176 12.8965L13.7004 17.7793C14.2863 18.4141 15.2629 18.4141 15.8488 17.7793L16.9231 16.7051C17.5578 16.1191 17.5578 15.1426 16.9231 14.5566L12.0403 9.625Z" fill="white"/>
</svg>
