<svg width="13" height="13" viewBox="0 0 13 13" fill="none" xmlns="http://www.w3.org/2000/svg">
<path d="M12.4418 10.8828L10.0981 8.53906C9.98087 8.44531 9.84024 8.375 9.69962 8.375H9.32462C9.95743 7.55469 10.3559 6.52344 10.3559 5.375C10.3559 2.70312 8.15274 0.5 5.48087 0.5C2.78555 0.5 0.605865 2.70312 0.605865 5.375C0.605865 8.07031 2.78555 10.25 5.48087 10.25C6.60587 10.25 7.63712 9.875 8.48087 9.21875V9.61719C8.48087 9.75781 8.52774 9.89844 8.64493 10.0156L10.9652 12.3359C11.1996 12.5703 11.5512 12.5703 11.7621 12.3359L12.4184 11.6797C12.6527 11.4688 12.6527 11.1172 12.4418 10.8828ZM5.48087 8.375C3.8168 8.375 2.48087 7.03906 2.48087 5.375C2.48087 3.73438 3.8168 2.375 5.48087 2.375C7.12149 2.375 8.48087 3.73438 8.48087 5.375C8.48087 7.03906 7.12149 8.375 5.48087 8.375Z" fill="#CCCCCC"/>
</svg>
